<?xml version="1.0" standalone="no"?>
<!DOCTYPE svg PUBLIC "-//W3C//DTD SVG 20010904//EN"
 "http://www.w3.org/TR/2001/REC-SVG-20010904/DTD/svg10.dtd">
<svg version="1.0" xmlns="http://www.w3.org/2000/svg"
 width="425.000000pt" height="170.000000pt" viewBox="0 0 425.000000 170.000000"
 preserveAspectRatio="xMidYMid meet">

<g transform="translate(0.000000,170.000000) scale(0.100000,-0.100000)"
fill="#fff" stroke="none">
<path d="M995 1658 c-22 -12 -67 -25 -100 -28 -86 -10 -129 -34 -167 -91 -17
-27 -52 -63 -78 -79 -59 -38 -90 -92 -90 -156 0 -54 -24 -104 -62 -127 -13 -8
-50 -18 -82 -21 -78 -9 -130 -39 -166 -98 -18 -30 -44 -55 -69 -67 -57 -30
-82 -71 -91 -149 -4 -37 -17 -86 -28 -109 -36 -71 -38 -113 -7 -180 15 -32 31
-88 35 -125 9 -77 31 -114 93 -153 23 -15 56 -48 72 -74 37 -56 99 -91 165
-91 29 0 62 -9 92 -25 63 -33 129 -33 192 0 29 15 63 25 89 25 61 0 125 36
168 94 21 27 55 60 76 74 51 33 83 80 90 131 6 40 5 41 -26 41 -24 0 -31 -4
-31 -20 0 -36 -23 -71 -72 -105 -26 -19 -64 -57 -84 -84 -38 -53 -62 -65 -150
-74 -28 -3 -67 -15 -85 -26 -45 -28 -85 -26 -151 4 -30 14 -71 25 -96 25 -59
0 -93 20 -136 79 -19 28 -54 62 -76 76 -52 33 -67 58 -73 126 -3 31 -17 81
-31 111 -32 68 -32 81 0 141 16 31 28 75 33 117 8 76 21 98 82 132 20 11 49
41 65 65 38 60 61 74 136 80 38 4 81 15 108 29 57 30 79 30 140 -1 32 -16 66
-25 97 -25 56 0 106 -23 131 -61 15 -23 20 -25 45 -14 l28 11 -23 34 c-34 51
-81 78 -146 85 -31 4 -82 17 -113 31 -31 13 -63 24 -72 24 -12 0 -14 11 -10
63 7 80 24 112 77 144 24 15 58 48 76 76 36 55 76 77 140 77 24 0 61 11 90 25
27 14 63 25 80 25 17 0 52 -11 78 -25 31 -17 63 -25 95 -25 62 0 99 -20 134
-72 16 -23 51 -59 78 -80 59 -45 71 -65 78 -141 3 -32 15 -74 27 -94 24 -41
28 -99 10 -132 -10 -19 -9 -26 6 -42 23 -26 31 -24 50 13 25 48 22 128 -6 175
-14 23 -26 65 -30 107 -9 78 -25 104 -93 156 -26 20 -59 54 -73 76 -38 59 -82
85 -156 91 -38 4 -81 15 -108 29 -58 31 -122 31 -175 2z"/>
<path d="M1057 1500 c-68 -54 -29 -162 58 -162 37 0 66 16 80 43 47 91 -59
181 -138 119z"/>
<path d="M823 1415 c-103 -44 -47 -198 62 -171 37 9 65 45 65 84 0 46 -16 71
-55 88 -40 16 -32 17 -72 -1z"/>
<path d="M1288 1315 c-79 -43 -40 -170 53 -170 83 0 120 96 60 156 -33 32 -70
37 -113 14z"/>
<path d="M1091 1175 c-40 -44 -45 -68 -15 -79 15 -6 78 44 95 76 7 14 7 23 -2
34 -19 23 -34 17 -78 -31z"/>
<path d="M1446 1070 c-18 -6 -18 -7 -2 -13 25 -10 46 -9 46 2 0 13 -22 19 -44
11z"/>
<path d="M1163 1052 c-7 -4 11 -18 45 -34 l57 -27 -37 35 c-40 36 -46 38 -65
26z"/>
<path d="M543 966 c-39 -34 -39 -98 0 -132 79 -68 189 15 146 109 -23 50 -100
62 -146 23z"/>
<path d="M2735 983 c-11 -2 -30 -6 -42 -8 -33 -8 -43 -60 -43 -233 l0 -154 29
-29 c29 -28 31 -29 138 -29 130 0 146 7 141 65 l-3 40 -82 -3 c-81 -4 -82 -3
-89 22 -9 37 1 56 30 56 45 0 56 10 56 51 0 35 -3 39 -24 39 -43 0 -56 10 -56
46 l0 33 78 3 77 3 3 42 c3 41 2 42 -35 52 -37 11 -138 13 -178 4z"/>
<path d="M1385 966 c-44 -19 -82 -69 -100 -128 -57 -195 82 -366 235 -288 77
39 116 122 107 226 -9 112 -76 192 -170 200 -23 3 -56 -2 -72 -10z m114 -122
c38 -48 22 -170 -24 -188 -27 -10 -53 12 -65 52 -12 46 -12 48 0 94 20 69 55
86 89 42z"/>
<path d="M1785 966 c-44 -19 -82 -69 -100 -128 -57 -195 82 -366 235 -288 77
39 116 122 107 226 -9 112 -76 192 -170 200 -23 3 -56 -2 -72 -10z m114 -122
c38 -48 22 -170 -24 -188 -27 -10 -53 12 -65 52 -12 46 -12 48 0 94 20 69 55
86 89 42z"/>
<path d="M2091 964 l-22 -16 7 -197 c3 -108 11 -202 16 -208 6 -7 28 -13 49
-13 56 0 79 26 79 92 0 49 1 50 19 34 10 -9 34 -39 52 -66 23 -34 41 -50 55
-50 22 0 74 35 74 50 0 5 -25 46 -56 92 -49 73 -54 85 -43 103 39 60 69 123
69 142 0 25 -35 53 -67 53 -17 0 -32 -17 -65 -72 l-43 -73 -3 57 c-2 46 -7 61
-25 73 -28 19 -67 19 -96 -1z"/>
<path d="M2482 970 l-23 -10 3 -205 c2 -170 6 -207 18 -215 23 -14 84 -12 106
4 18 14 19 26 16 208 -2 137 -7 197 -16 206 -17 17 -76 24 -104 12z"/>
<path d="M3022 969 c-20 -8 -23 -15 -20 -56 l3 -48 58 -9 57 -8 0 -135 c0 -74
5 -143 10 -154 8 -14 21 -19 53 -19 74 0 76 6 79 170 l3 145 44 6 c47 6 71 28
71 65 0 45 -32 54 -190 53 -80 0 -155 -4 -168 -10z"/>
<path d="M3420 960 c-22 -22 -27 -72 -7 -88 6 -5 33 -13 58 -17 l46 -7 5 -145
c6 -162 6 -163 75 -163 65 0 72 18 66 155 -8 148 -3 165 43 165 56 0 74 15 74
61 0 54 -17 59 -196 59 -131 0 -146 -2 -164 -20z"/>
<path d="M3934 966 c-78 -34 -118 -121 -112 -240 4 -88 36 -144 98 -176 139
-71 283 74 250 250 -17 87 -52 135 -122 165 -45 18 -73 19 -114 1z m112 -121
c37 -56 23 -159 -25 -185 -18 -9 -25 -7 -47 15 -24 24 -26 32 -22 84 7 97 57
143 94 86z"/>
<path d="M962 944 c-93 -46 -139 -146 -118 -257 10 -55 78 -124 139 -142 136
-40 273 6 239 81 -12 26 -14 26 -70 19 -115 -16 -144 -8 -168 51 -17 40 -4 91
32 125 23 21 35 24 107 24 79 0 82 1 95 27 17 37 3 61 -48 82 -62 25 -146 21
-208 -10z"/>
<path d="M774 915 c-4 -8 -3 -22 0 -32 6 -14 8 -14 21 3 8 10 15 25 15 32 0
17 -29 15 -36 -3z"/>
<path d="M313 905 c-103 -44 -47 -198 62 -171 37 9 65 45 65 84 0 46 -16 71
-55 88 -40 16 -32 17 -72 -1z"/>
<path d="M1090 770 c-8 -5 -10 -18 -6 -34 5 -22 11 -26 29 -20 31 9 39 18 32
36 -8 19 -38 29 -55 18z"/>
<path d="M474 695 c-9 -21 2 -33 58 -61 54 -28 78 -26 78 6 0 14 -15 27 -50
45 -56 29 -78 31 -86 10z"/>
<path d="M275 648 c-31 -18 -44 -40 -45 -76 0 -46 16 -71 56 -88 29 -12 39
-12 68 0 40 17 56 42 56 88 -1 68 -75 110 -135 76z"/>
<path d="M650 574 c-44 -40 -51 -76 -16 -82 25 -5 98 66 94 93 -5 33 -34 29
-78 -11z"/>
<path d="M480 433 c-38 -15 -60 -47 -60 -87 1 -86 84 -125 149 -70 39 33 43
89 9 128 -23 26 -70 40 -98 29z"/>
<path d="M792 384 c-45 -20 -53 -27 -50 -46 2 -18 9 -23 29 -21 38 2 103 36
107 55 6 32 -29 37 -86 12z"/>
</g>
</svg>
